{"title":"Skylar Grey ft. X Ambassadors - Cannonball (2015.Pop)","uid":12526443,"size":79346188,"categoryP":"video","categoryS":"music_videos","magnet":"?xt=urn:btih:a8b923f818af933fed0543ae045b5457e870f2df&amp;dn=Skylar+Grey+ft.+X+Ambassadors+-+Cannonball+%282015.Pop%29&amp;tr=udp%3A%2F%2Ftracker.leechers-paradise.org%3A6969&amp;tr=udp%3A%2F%2Fzer0day.ch%3A1337&amp;tr=udp%3A%2F%2Fopen.demonii.com%3A1337&amp;tr=udp%3A%2F%2Ftracker.coppersurfer.tk%3A6969&amp;tr=udp%3A%2F%2Fexodus.desync.com%3A6969","seeders":1,"leechers":0,"uploader":"MeRaDil","files":1,"time":1444068877,"description":"SKYLAR GREY ft.X AMBASSADORS - CANNONBALL\r\n\r\n \nhttp://gifyu.com/images/skylar-01.png\r\n \nhttp://gifyu.com/images/skylar-02.png\r\n \nhttp://gifyu.com/images/skylar-03.png\r\n\r\n\r\nMEDIA INFO\r\nGeneral\r\nSkylar Grey ft. X Ambassadors - Cannonball\r\nFormat                                   : MPEG-4\r\nFormat profile                           : Base Media\r\nCodec ID                                 : isom\r\nFile size                                : 75.7 MiB\r\nDuration                                 : 3mn 59s\r\nOverall bit rate                         : 2 654 Kbps\r\nMusicVid name                            : Cannonball\r\nPerformer                                : Skylar Grey ft. X.Ambassadors\r\nGenre                                    : Pop\r\nContentType                              : Music Video\r\nRecorded date                            : 2015\r\nMake                                     : MeRaDil\r\nRelease date                             : USA - october 5 - 2015\r\n\r\nVideo\r\nID                                       : 1\r\nFormat                                   : AVC\r\nFormat/Info                              : Advanced Video Codec\r\nFormat profile                           :   \r\nFormat settings, CABAC                   : Yes\r\nFormat settings, ReFrames                : 2 frames\r\nCodec ID                                 : avc1\r\nCodec ID/Info                            : Advanced Video Coding\r\nDuration                                 : 3mn 59s\r\nBit rate                                 : 2 392 Kbps\r\nWidth                                    : 1 920 pixels\r\nHeight                                   : 1 080 pixels\r\nDisplay aspect ratio                     : 16:9\r\nFrame rate mode                          : Variable\r\nFrame rate                               : 23.976 fps\r\nMinimum frame rate                       : 23.974 fps\r\nMaximum frame rate                       : 23.981 fps\r\nColor space                              : YUV\r\nChroma subsampling                       : 4:2:0\r\nBit depth                                : 8 bits\r\nScan type                                : Progressive\r\nBits/(Pixel*Frame)                       : 0.048\r\nStream size                              : 68.2 MiB (90%)\r\n\r\nAudio\r\nID                                       : 2\r\nFormat                                   : AAC\r\nFormat/Info                              : Advanced Audio Codec\r\nFormat profile                           : LC\r\nCodec ID                                 : 40\r\nDuration                                 : 3mn 59s\r\nBit rate mode                            : Constant\r\nBit rate                                 : 256 Kbps\r\nChannel(s)                               : 2 channels\r\nChannel positions                        : Front: L R\r\nSampling rate                            : 44.1 KHz\r\nCompression mode                         : Lossy\r\nStream size                              : 7.30 MiB (10%)\r\n\r\nSkylar Grey * X Ambassadors * Pop * Promo","torrent":{"xt":"urn:btih:a8b923f818af933fed0543ae045b5457e870f2df","amp;dn":"Skylar+Grey+ft.+X+Ambassadors+-+Cannonball+%282015.Pop%29","amp;tr":["udp%3A%2F%2Ftracker.leechers-paradise.org%3A6969","udp%3A%2F%2Fzer0day.ch%3A1337","udp%3A%2F%2Fopen.demonii.com%3A1337","udp%3A%2F%2Ftracker.coppersurfer.tk%3A6969","udp%3A%2F%2Fexodus.desync.com%3A6969"],"infoHash":"a8b923f818af933fed0543ae045b5457e870f2df","infoHashBuffer":{"type":"Buffer","data":[168,185,35,248,24,175,147,63,237,5,67,174,4,91,84,87,232,112,242,223]},"announce":[],"urlList":[]}}